<?xml version="1.0" encoding="utf-8"?>
<!-- Generator: Adobe Illustrator 25.2.1, SVG Export Plug-In . SVG Version: 6.00 Build 0)  -->
<svg version="1.1" id="Capa_1" xmlns="http://www.w3.org/2000/svg" xmlns:xlink="http://www.w3.org/1999/xlink" x="0px" y="0px"
	 viewBox="0 0 612 792" style="enable-background:new 0 0 612 792;" xml:space="preserve">
<path d="M306,340.24h165.65v-97.88c0,0,3.76-32.94,40.47-36.24c0,0,36.24,3.76,40.94,36.24c0.94,0.47,0,24.47,0,24.47
	s22.12-16.94,43.29,1.41c0.94,0.94,8.65,10.35,8.65,27.76c0,0.47,0,162.35,0,162.35s-7.24,24.94-25.12,24.47
	c-17.88-0.47-27.29-6.59-27.29-6.59v26.35c0,0-6.59,30.12-39.53,32.94s-40.47-32-40.47-32l-1.41-101.65l-329.88,0.47v95.06
	c0,0-5.65,35.15-40.94,38.28c-35.29,3.13-41.88-39.22-41.88-39.22v-20.71c0,0-8.47,8.94-26.82,7.06S7,459.76,7,459.76V285.18
	c0,0,8.65-28.71,29.35-26.35c20.71,2.35,22.59,9.41,22.59,9.41v-24.94c0,0,6.59-36.24,41.41-37.18s39.06,40,39.06,40l0.94,95.06
	L306,340.24z"/>
</svg>
